<svg width="12" height="12" viewBox="0 0 12 12" fill="none" xmlns="http://www.w3.org/2000/svg">
<path fill-rule="evenodd" clip-rule="evenodd" d="M3.42852 8.1826L3.83008 6.04181C3.84249 5.9758 3.87452 5.91507 3.92201 5.86756L9.55515 0.234417C9.97431 -0.184732 10.7881 -0.0275712 11.408 0.592253C12.0277 1.21199 12.1848 2.02581 11.7657 2.44496L6.13255 8.0781C6.08504 8.12559 6.02431 8.15763 5.9583 8.17004L3.81761 8.5717C3.76434 8.58168 3.70943 8.57853 3.65765 8.56251C3.60587 8.54649 3.55878 8.51809 3.52045 8.47976C3.48212 8.44143 3.45372 8.39434 3.4377 8.34256C3.42168 8.29078 3.41853 8.23588 3.42852 8.1826ZM10.0266 0.705828L4.46633 6.26605L4.17359 7.82661L5.73407 7.53378L11.2943 1.97355C11.4042 1.86366 11.3175 1.44465 10.9365 1.06366C10.5555 0.682577 10.1364 0.59594 10.0266 0.705828ZM10.2326 12H0.333333C0.289558 12 0.246212 11.9914 0.205768 11.9746C0.165325 11.9579 0.128577 11.9333 0.0976236 11.9024C0.0666701 11.8714 0.0421171 11.8347 0.0253667 11.7942C0.00861633 11.7538 -3.32535e-06 11.7104 9.62344e-10 11.6667V1.76752C-3.32535e-06 1.72374 0.00861633 1.68039 0.0253667 1.63995C0.0421171 1.59951 0.0666701 1.56276 0.0976236 1.53181C0.128577 1.50085 0.165325 1.4763 0.205768 1.45955C0.246212 1.4428 0.289558 1.43418 0.333333 1.43418H5.7154L5.04872 2.10085H0.666667V11.3333H9.89922V6.95119L10.5659 6.28453V11.6667C10.5659 11.7104 10.5573 11.7538 10.5405 11.7942C10.5238 11.8347 10.4992 11.8714 10.4683 11.9024C10.4373 11.9333 10.4006 11.9579 10.3601 11.9746C10.3197 11.9914 10.2763 12 10.2326 12Z" fill="#9DB8BF"/>
</svg>
