<?xml version="1.0" standalone="no"?>
<!DOCTYPE svg PUBLIC "-//W3C//DTD SVG 20010904//EN"
 "http://www.w3.org/TR/2001/REC-SVG-20010904/DTD/svg10.dtd">
<svg version="1.0" xmlns="http://www.w3.org/2000/svg"
 width="512.000000pt" height="512.000000pt" viewBox="0 0 512.000000 512.000000"
 preserveAspectRatio="xMidYMid meet">
<metadata>
Created by potrace 1.11, written by Peter Selinger 2001-2013
</metadata>
<g transform="translate(0.000000,512.000000) scale(0.100000,-0.100000)"
fill="#000000" stroke="none">
<path d="M1040 5113 c-249 -38 -456 -130 -632 -283 -189 -163 -331 -403 -383
-646 -21 -96 -24 -296 -23 -1634 0 -1604 -2 -1551 54 -1725 119 -377 417 -666
804 -780 152 -45 121 -44 1725 -42 836 2 1534 6 1550 10 17 5 50 13 75 18 213
47 448 186 607 360 117 129 243 366 270 508 2 14 6 28 8 31 3 4 8 34 12 66 10
72 11 3051 1 3114 -59 401 -328 751 -699 912 -102 44 -178 65 -314 88 -48 8
-3003 11 -3055 3z m3119 -371 c151 -47 265 -116 375 -227 99 -100 164 -215
214 -376 15 -49 17 -180 19 -1549 3 -1443 2 -1498 -17 -1582 -35 -160 -106
-291 -218 -405 -107 -108 -265 -201 -387 -227 -16 -3 -41 -10 -55 -13 -14 -4
-693 -9 -1510 -10 -1602 -3 -1538 -4 -1685 49 -190 69 -353 212 -449 393 -35
65 -72 177 -86 255 -8 46 -10 498 -8 1550 l3 1485 24 75 c102 325 352 547 681
603 14 2 700 4 1525 3 l1500 -1 74 -23z"/>
<path d="M2740 3640 c-76 -14 -140 -66 -163 -133 -17 -52 -14 -125 8 -168 18
-35 300 -320 429 -434 43 -39 93 -84 112 -100 l34 -30 -863 1 c-958 1 -912 4
-983 -66 -80 -78 -77 -229 5 -307 66 -63 24 -61 975 -59 l866 1 -32 -28 c-234
-204 -523 -494 -545 -545 -20 -49 -23 -108 -6 -157 39 -116 182 -172 293 -115
58 30 943 907 972 965 28 54 28 137 1 190 -29 54 -918 937 -972 964 -47 24
-81 30 -131 21z"/>
</g>
</svg>
